<?xml version="1.0" encoding="UTF-8"?>
<svg id="Layer_2" data-name="Layer 2" xmlns="http://www.w3.org/2000/svg" viewBox="0 0 990.71 990.8">
  <defs>
    <style>
      .cls-1 {
        fill: #ed1c24;
      }
    </style>
  </defs>
  <g id="Layer_1-2" data-name="Layer 1">
    <path class="cls-1" d="M357.66,499.01c-2.27,31.66-16.58,50.03-42.59,55.51-24.32,5.08-29.26-30.1-10.06-35.98,17.65-5.39,35.16-12.36,52.64-19.52M478.64,244.63C511.66,10.27,628.92-20.39,831.23,34.29c-145.68.25-271.35,53.13-352.59,210.34ZM751.52,334.93c-20.94,16.79-44.22,26.7-72.2,22.72,77.07-19.09,50.85-82.39,96.43-135.59-74.38-5.94-129.59,29.11-162.38,109.33,5.19-109.42,57.62-192.39,146.51-254.92,136.3,86.22,227.62,237.12,230.82,409.57-84.61-53.22-215.46-133.38-239.19-151.11ZM379.59,841.56c-7.75-55.05,91.92-131.98,140.3-150.96,56.64-22.27,62.59-68.86,51.14-124.14,23.79,38.31,26.26,79.29-10.14,124.36,18.79,5.18,37.59,10.36,56.38,15.54,26.02,46.72,82.43,146.32,123.61,219.42-72.36,41.36-156.16,65.01-245.48,65.01-49.3,0-96.89-7.23-141.83-20.64,25.28-37.4,32.73-80.66,26.02-128.6ZM575.59,6.48c-128.83,46.39-228.42,180.66-292.74,420.96-12.22,35-23.64,70.33-35.94,105.21-22.64,64.22-49.72,121.31-80.47,172.38-30.03,49.9-50.55,128.35,29.65,140.44,28.97,4.34,59.82.6,90.64-3.13,48.64.06,65.15,42.34,52.28,123.24C142.05,900.1,0,714.35,0,495.4,0,221.8,221.8,0,495.4,0c27.31,0,54.09,2.22,80.19,6.48Z"/>
  </g>
</svg>