<?xml version="1.0" encoding="UTF-8"?>
<svg id="Layer_2" data-name="Layer 2" xmlns="http://www.w3.org/2000/svg" xmlns:xlink="http://www.w3.org/1999/xlink" viewBox="0 0 4054.34 990.8">
  <defs>
    <style>
      .cls-1, .cls-2 {
        fill: #ed1c24;
      }

      .cls-2 {
        fill-rule: evenodd;
      }

      .cls-3 {
        fill: url(#linear-gradient);
      }
    </style>
    <linearGradient id="linear-gradient" x1="1866.06" y1="-237.59" x2="4002.72" y2="1356.14" gradientUnits="userSpaceOnUse">
      <stop offset="0" stop-color="#fbc926"/>
      <stop offset=".25" stop-color="#fff69d"/>
      <stop offset=".26" stop-color="#fbf096"/>
      <stop offset=".33" stop-color="#e7ce71"/>
      <stop offset=".4" stop-color="#d7b453"/>
      <stop offset=".47" stop-color="#cca13e"/>
      <stop offset=".53" stop-color="#c59532"/>
      <stop offset=".6" stop-color="#c3922e"/>
      <stop offset=".83" stop-color="#eed688"/>
      <stop offset="1" stop-color="#fffbcc"/>
    </linearGradient>
  </defs>
  <g id="Layer_1-2" data-name="Layer 1">
    <g>
      <path class="cls-3" d="M1467.2,596.44h-78.42V204.6h156.85c14.39,0,28.23,1.87,41.54,5.6,13.29,3.74,25.73,9.02,37.3,15.85,11.57,6.83,22.13,15.03,31.7,24.59,9.56,9.56,17.76,20.18,24.59,31.83,6.83,11.66,12.11,24.14,15.85,37.44,3.73,13.3,5.6,27.15,5.6,41.53,0,13.49-1.69,26.6-5.05,39.35-3.38,12.75-8.2,24.87-14.48,36.34-6.28,11.48-13.98,22.04-23.09,31.7-9.11,9.66-19.31,18.03-30.6,25.14l43.45,102.47h-83.34l-34.16-78.97-87.71.54v78.42ZM1467.2,283.03v156.84h78.42c10.75,0,20.86-2.05,30.33-6.15,9.47-4.1,17.76-9.7,24.86-16.8,7.11-7.11,12.71-15.44,16.81-25,4.1-9.57,6.15-19.72,6.15-30.47s-2.05-20.9-6.15-30.47c-4.1-9.57-9.7-17.9-16.81-25-7.1-7.11-15.4-12.71-24.86-16.81-9.47-4.1-19.59-6.14-30.33-6.14h-78.42ZM2022.17,596.44h-268.61V204.6h268.61v78.42h-190.18v78.42h128.7v78.42h-128.7v78.15h190.18v78.42ZM2391.06,400.52c0,18.03-2.32,35.38-6.97,52.05-4.64,16.67-11.25,32.24-19.81,46.72-8.57,14.48-18.76,27.69-30.6,39.62-11.84,11.93-25.05,22.18-39.62,30.74-14.58,8.56-30.19,15.16-46.86,19.81-16.67,4.65-34.02,6.97-52.05,6.97h-118.04V204.6h118.04c18.03,0,35.39,2.32,52.05,6.96,16.67,4.65,32.29,11.25,46.86,19.81,14.57,8.57,27.78,18.81,39.62,30.74,11.84,11.93,22.04,25.14,30.6,39.62,8.56,14.48,15.16,30.06,19.81,46.73,4.65,16.67,6.97,34.02,6.97,52.06ZM2312.63,400.52c0-16.22-3.05-31.43-9.15-45.64-6.1-14.21-14.48-26.64-25.14-37.3-10.66-10.65-23.14-19.08-37.44-25.27-14.3-6.19-29.56-9.29-45.77-9.29h-39.07v234.99h39.07c16.21,0,31.47-3.05,45.77-9.15,14.3-6.1,26.78-14.48,37.44-25.14,10.66-10.66,19.03-23.13,25.14-37.44,6.1-14.3,9.15-29.56,9.15-45.77ZM2911.33,556.82c-18.22,15.49-38.52,27.37-60.93,35.66-22.41,8.29-45.73,12.43-69.95,12.43-18.58,0-36.48-2.42-53.69-7.24-17.22-4.82-33.3-11.65-48.23-20.49-14.94-8.84-28.6-19.4-40.99-31.7-12.39-12.3-22.95-25.96-31.7-40.99-8.74-15.03-15.53-31.19-20.36-48.5-4.83-17.3-7.24-35.25-7.24-53.83s2.41-36.43,7.24-53.56c4.82-17.12,11.61-33.2,20.36-48.23,8.74-15.03,19.31-28.69,31.7-40.98,12.39-12.3,26.05-22.82,40.99-31.56,14.93-8.74,31.02-15.53,48.23-20.36,17.22-4.82,35.11-7.24,53.69-7.24,24.22,0,47.55,4.15,69.95,12.43,22.41,8.29,42.72,20.18,60.93,35.66l-40.98,68.31c-11.85-12.02-25.51-21.45-40.99-28.28-15.48-6.83-31.79-10.25-48.91-10.25s-33.2,3.28-48.23,9.83c-15.03,6.56-28.19,15.44-39.48,26.65-11.3,11.2-20.22,24.32-26.78,39.35-6.56,15.03-9.84,31.11-9.84,48.23s3.28,33.52,9.84,48.63c6.56,15.12,15.48,28.33,26.78,39.62,11.29,11.3,24.45,20.22,39.48,26.78,15.03,6.56,31.1,9.83,48.23,9.83,9.84,0,19.4-1.18,28.69-3.55,9.29-2.37,18.12-5.65,26.5-9.84v-111.49h75.69v154.66ZM3355.63,402.16c0,18.58-2.42,36.48-7.24,53.69-4.82,17.21-11.61,33.33-20.36,48.36-8.74,15.03-19.31,28.74-31.7,41.12s-26.05,23-40.99,31.84c-14.94,8.84-31.06,15.67-48.37,20.49-17.3,4.82-35.25,7.24-53.83,7.24s-36.48-2.42-53.69-7.24c-17.21-4.82-33.33-11.65-48.36-20.49-15.03-8.84-28.74-19.45-41.12-31.84-12.39-12.39-23-26.1-31.84-41.12-8.84-15.03-15.67-31.15-20.49-48.36-4.83-17.22-7.24-35.11-7.24-53.69s2.41-36.53,7.24-53.83c4.82-17.3,11.65-33.43,20.49-48.37,8.83-14.93,19.45-28.6,31.84-40.99,12.39-12.39,26.1-22.95,41.12-31.7,15.03-8.74,31.15-15.53,48.36-20.36,17.22-4.82,35.11-7.24,53.69-7.24s36.53,2.42,53.83,7.24c17.3,4.82,33.43,11.61,48.37,20.36,14.93,8.74,28.6,19.31,40.99,31.7,12.39,12.39,22.95,26.05,31.7,40.99,8.74,14.94,15.53,31.06,20.36,48.37,4.82,17.3,7.24,35.25,7.24,53.83ZM3277.76,402.16c0-17.12-3.28-33.29-9.84-48.5-6.56-15.21-15.44-28.42-26.64-39.62-11.2-11.2-24.42-20.08-39.62-26.64-15.21-6.56-31.38-9.84-48.5-9.84s-33.52,3.28-48.64,9.84c-15.12,6.56-28.33,15.44-39.62,26.64-11.3,11.2-20.22,24.42-26.78,39.62-6.56,15.21-9.84,31.38-9.84,48.5s3.28,33.2,9.84,48.23c6.56,15.03,15.48,28.19,26.78,39.49,11.29,11.3,24.49,20.22,39.62,26.78,15.12,6.56,31.33,9.84,48.64,9.84s33.29-3.28,48.5-9.84c15.21-6.56,28.42-15.48,39.62-26.78,11.2-11.29,20.08-24.46,26.64-39.49,6.56-15.03,9.84-31.1,9.84-48.23ZM3716.05,596.44h-78.42v-78.42h-156.85v78.42h-78.15v-235c0-21.67,4.1-42.03,12.29-61.07,8.2-19.03,19.36-35.66,33.47-49.87,14.12-14.21,30.7-25.41,49.73-33.61,19.03-8.2,39.39-12.3,61.07-12.3s42.04,4.1,61.07,12.3c19.03,8.19,35.66,19.4,49.87,33.61,14.21,14.21,25.41,30.84,33.61,49.87,8.2,19.04,12.3,39.4,12.3,61.07v235ZM3637.64,439.87v-78.42c0-10.74-2.05-20.9-6.15-30.47-4.1-9.57-9.7-17.9-16.81-25-7.1-7.11-15.44-12.71-25-16.81-9.56-4.1-19.72-6.14-30.47-6.14s-20.91,2.05-30.47,6.14c-9.56,4.1-17.9,9.7-25,16.81-7.1,7.11-12.71,15.44-16.8,25-4.1,9.57-6.15,19.72-6.15,30.47v78.42h156.85ZM3936.84,596.44h-78.15v-313.42h-117.77v-78.42h313.42v78.42h-117.5v313.42Z"/>
      <g>
        <path class="cls-1" d="M1533.6,706.18l-29.64,90.6h-22.52l-19.93-61.35-20.58,61.35h-22.39l-29.77-90.6h21.74l20.45,63.68,21.36-63.68h19.41l20.71,64.19,21.1-64.19h20.06Z"/>
        <path class="cls-1" d="M1641.31,779.95v16.83h-70.14v-90.6h68.46v16.83h-47.63v19.67h42.06v16.31h-42.06v20.97h49.31Z"/>
        <path class="cls-1" d="M1740.74,751.48c0-27.31,20.96-46.85,49.18-46.85,15.66,0,28.73,5.69,37.27,16.05l-13.46,12.42c-6.09-6.99-13.73-10.61-22.78-10.61-16.96,0-28.99,11.91-28.99,28.99s12.03,28.99,28.99,28.99c9.05,0,16.69-3.62,22.78-10.74l13.46,12.42c-8.55,10.49-21.62,16.18-37.41,16.18-28.09,0-49.05-19.54-49.05-46.85Z"/>
        <path class="cls-1" d="M1924.93,796.78l-17.48-25.24h-19.28v25.24h-20.97v-90.6h39.22c24.21,0,39.35,12.55,39.35,32.87,0,13.59-6.86,23.56-18.64,28.6l20.32,29.12h-22.51ZM1905.26,723.27h-17.08v31.58h17.08c12.81,0,19.28-5.95,19.28-15.79s-6.47-15.79-19.28-15.79Z"/>
        <path class="cls-1" d="M2058.39,779.95v16.83h-70.15v-90.6h68.47v16.83h-47.63v19.67h42.07v16.31h-42.07v20.97h49.31Z"/>
        <path class="cls-1" d="M2160.65,777.36h-42.07l-8.02,19.41h-21.49l40.38-90.6h20.71l40.51,90.6h-22l-8.02-19.41ZM2154.06,761.45l-14.37-34.69-14.37,34.69h28.74Z"/>
        <path class="cls-1" d="M2240.27,723.27h-28.99v-17.08h78.95v17.08h-28.99v73.51h-20.97v-73.51Z"/>
        <path class="cls-1" d="M2397.54,779.95v16.83h-70.15v-90.6h68.47v16.83h-47.63v19.67h42.07v16.31h-42.07v20.97h49.31Z"/>
        <path class="cls-1" d="M2435.09,785.13c0-7.51,5.56-12.42,12.56-12.42s12.55,4.92,12.55,12.42-5.57,12.68-12.55,12.68-12.56-5.31-12.56-12.68Z"/>
        <path class="cls-1" d="M2607.24,764.68v32.1h-20.96v-32.36l-35.08-58.24h22.26l24.21,40.25,24.2-40.25h20.58l-35.2,58.5Z"/>
        <path class="cls-1" d="M2667.57,751.48c0-26.92,20.97-46.85,49.57-46.85s49.57,19.8,49.57,46.85-21.1,46.85-49.57,46.85-49.57-19.93-49.57-46.85ZM2745.49,751.48c0-17.21-12.17-28.99-28.35-28.99s-28.35,11.78-28.35,28.99,12.17,28.99,28.35,28.99,28.35-11.78,28.35-28.99Z"/>
        <path class="cls-1" d="M2807.64,756.92v-50.73h20.96v49.96c0,17.21,7.51,24.33,20.19,24.33s20.19-7.12,20.19-24.33v-49.96h20.71v50.73c0,26.66-15.27,41.42-41.02,41.42s-41.02-14.75-41.02-41.42Z"/>
        <path class="cls-1" d="M2993.13,751.48c0-27.31,20.97-46.85,49.18-46.85,15.66,0,28.74,5.69,37.27,16.05l-13.46,12.42c-6.08-6.99-13.71-10.61-22.78-10.61-16.95,0-28.99,11.91-28.99,28.99s12.04,28.99,28.99,28.99c9.07,0,16.7-3.62,22.78-10.74l13.46,12.42c-8.54,10.49-21.61,16.18-37.4,16.18-28.08,0-49.05-19.54-49.05-46.85Z"/>
        <path class="cls-1" d="M3189.75,779.95v16.83h-70.14v-90.6h68.46v16.83h-47.63v19.67h42.06v16.31h-42.06v20.97h49.31Z"/>
        <path class="cls-1" d="M3232.36,706.18h20.96v73.51h45.43v17.08h-66.39v-90.6Z"/>
        <path class="cls-1" d="M3406.58,779.95v16.83h-70.15v-90.6h68.47v16.83h-47.63v19.67h42.07v16.31h-42.07v20.97h49.31Z"/>
        <path class="cls-1" d="M3532.27,772.06c0,15.66-12.42,24.72-36.24,24.72h-46.86v-90.6h44.27c22.65,0,34.29,9.45,34.29,23.56,0,9.06-4.66,16.05-12.03,19.93,10.09,3.24,16.57,11,16.57,22.39ZM3470.02,721.97v21.36h20.84c10.22,0,15.78-3.62,15.78-10.74s-5.56-10.61-15.78-10.61h-20.84ZM3511.17,769.86c0-7.64-5.82-11.26-16.69-11.26h-24.46v22.39h24.46c10.87,0,16.69-3.37,16.69-11.13Z"/>
        <path class="cls-1" d="M3631.82,796.78l-17.47-25.24h-19.29v25.24h-20.96v-90.6h39.21c24.2,0,39.35,12.55,39.35,32.87,0,13.59-6.86,23.56-18.64,28.6l20.32,29.12h-22.53ZM3612.14,723.27h-17.08v31.58h17.08c12.82,0,19.29-5.95,19.29-15.79s-6.47-15.79-19.29-15.79Z"/>
        <path class="cls-1" d="M3754.79,777.36h-42.06l-8.03,19.41h-21.48l40.38-90.6h20.71l40.51,90.6h-22l-8.02-19.41ZM3748.19,761.45l-14.36-34.69-14.36,34.69h28.73Z"/>
        <path class="cls-1" d="M3834.41,723.27h-28.99v-17.08h78.95v17.08h-28.99v73.51h-20.97v-73.51Z"/>
        <path class="cls-1" d="M3991.69,779.95v16.83h-70.15v-90.6h68.47v16.83h-47.63v19.67h42.07v16.31h-42.07v20.97h49.31Z"/>
        <path class="cls-1" d="M4029.23,785.13c0-7.51,5.57-12.42,12.55-12.42s12.56,4.92,12.56,12.42-5.56,12.68-12.56,12.68-12.55-5.31-12.55-12.68Z"/>
      </g>
      <path class="cls-2" d="M357.66,499.01c-2.27,31.66-16.58,50.03-42.59,55.51-24.32,5.08-29.26-30.1-10.06-35.98,17.65-5.39,35.16-12.36,52.64-19.52M478.64,244.63C511.66,10.27,628.92-20.39,831.23,34.29c-145.68.25-271.35,53.13-352.59,210.34ZM751.52,334.93c-20.94,16.79-44.22,26.7-72.2,22.72,77.07-19.09,50.85-82.39,96.43-135.59-74.38-5.94-129.59,29.11-162.38,109.33,5.19-109.42,57.62-192.39,146.51-254.92,136.3,86.22,227.62,237.12,230.82,409.57-84.61-53.22-215.46-133.38-239.19-151.11ZM379.59,841.56c-7.75-55.05,91.92-131.98,140.3-150.96,56.64-22.27,62.59-68.86,51.14-124.14,23.79,38.31,26.26,79.29-10.14,124.36,18.79,5.18,37.59,10.36,56.38,15.54,26.02,46.72,82.43,146.32,123.61,219.42-72.36,41.36-156.16,65.01-245.48,65.01-49.3,0-96.89-7.23-141.83-20.64,25.28-37.4,32.73-80.66,26.02-128.6ZM575.59,6.48c-128.83,46.39-228.42,180.66-292.74,420.96-12.22,35-23.64,70.33-35.94,105.21-22.64,64.22-49.72,121.31-80.47,172.38-30.03,49.9-50.55,128.35,29.65,140.44,28.97,4.34,59.82.6,90.64-3.13,48.64.06,65.15,42.34,52.28,123.24C142.05,900.1,0,714.35,0,495.4,0,221.8,221.8,0,495.4,0c27.31,0,54.09,2.22,80.19,6.48Z"/>
    </g>
  </g>
</svg>